HIERARCHY
ROOT Hips
{
	OFFSET 0.000000 83.214638 0.000000
	CHANNELS 6 Xposition Yposition Zposition Xrotation Yrotation Zrotation
	JOINT Pelvis
	{
		OFFSET 0.000000 0.000000 0.000000
		CHANNELS 3 Xrotation Yrotation Zrotation
		JOINT LeftUpLeg
		{
			OFFSET 8.479700 -4.795502 -0.379100
			CHANNELS 3 Xrotation Yrotation Zrotation
			JOINT LeftLeg
			{
				OFFSET 0.024144 -32.555107 0.112900
				CHANNELS 3 Xrotation Yrotation Zrotation
				JOINT LeftFoot
				{
					OFFSET -0.024144 -32.638630 -3.012600
					CHANNELS 3 Xrotation Yrotation Zrotation
					JOINT LeftToeBase
					{
						OFFSET 0.970200 -13.225400 11.864200
						CHANNELS 3 Xrotation Yrotation Zrotation
						End Site
						{
							OFFSET 0.000000 12.319262 0.000000
						}
					}
					JOINT LFootTongue
					{
						OFFSET 1.142400 -1.059800 6.665200
						CHANNELS 3 Xrotation Yrotation Zrotation
						End Site
						{
							OFFSET 0.000000 12.319262 0.000000
						}
					}
				}
				JOINT LeftPantLeg
				{
					OFFSET 0.918482 -16.533964 -2.284700
					CHANNELS 3 Xrotation Yrotation Zrotation
					End Site
					{
						OFFSET 0.350399 24.744368 0.000000
					}
				}
			}
		}
		JOINT RightUpLeg
		{
			OFFSET -8.479700 -4.795502 -0.379100
			CHANNELS 3 Xrotation Yrotation Zrotation
			JOINT RightLeg
			{
				OFFSET -0.023144 -32.555092 0.112900
				CHANNELS 3 Xrotation Yrotation Zrotation
				JOINT RightFoot
				{
					OFFSET 0.023144 -32.638641 -3.012700
					CHANNELS 3 Xrotation Yrotation Zrotation
					JOINT RightToeBase
					{
						OFFSET -0.970200 -13.225400 11.864200
						CHANNELS 3 Xrotation Yrotation Zrotation
						End Site
						{
							OFFSET 0.000000 12.319244 0.000000
						}
					}
					JOINT RFootTongue
					{
						OFFSET -1.142200 -1.059800 6.665200
						CHANNELS 3 Xrotation Yrotation Zrotation
						End Site
						{
							OFFSET 0.000000 12.319243 0.000000
						}
					}
				}
				JOINT RightPantLeg
				{
					OFFSET -0.919482 -16.533978 -2.284800
					CHANNELS 3 Xrotation Yrotation Zrotation
					End Site
					{
						OFFSET -0.350400 24.744419 0.000000
					}
				}
			}
		}
	}
	JOINT Spine
	{
		OFFSET 0.000000 7.722000 1.166200
		CHANNELS 3 Xrotation Yrotation Zrotation
		JOINT Spine1
		{
			OFFSET 0.000000 12.024101 0.248800
			CHANNELS 3 Xrotation Yrotation Zrotation
			JOINT Spine2
			{
				OFFSET 0.000000 11.502998 -0.491200
				CHANNELS 3 Xrotation Yrotation Zrotation
				JOINT Neck
				{
					OFFSET 0.000000 18.430702 -3.123100
					CHANNELS 3 Xrotation Yrotation Zrotation
					JOINT Head
					{
						OFFSET 0.000000 9.051102 1.034000
						CHANNELS 3 Xrotation Yrotation Zrotation
						JOINT HairB
						{
							OFFSET 0.208400 24.786102 24.822300
							CHANNELS 3 Xrotation Yrotation Zrotation
							End Site
							{
								OFFSET 0.000000 32.263779 0.000000
							}
						}
						JOINT HairA
						{
							OFFSET -7.081100 24.428299 23.196600
							CHANNELS 3 Xrotation Yrotation Zrotation
							End Site
							{
								OFFSET 0.000000 32.263779 0.000000
							}
						}
						JOINT Hat
						{
							OFFSET 16.728800 15.048294 -15.439601
							CHANNELS 3 Xrotation Yrotation Zrotation
							End Site
							{
								OFFSET 0.000000 32.263779 0.000000
							}
						}
					}
				}
				JOINT LeftShoulder
				{
					OFFSET 6.197800 13.665199 -4.064700
					CHANNELS 3 Xrotation Yrotation Zrotation
					JOINT LeftArm
					{
						OFFSET 7.778100 -0.187103 -1.709300
						CHANNELS 3 Xrotation Yrotation Zrotation
						JOINT LeftForeArm
						{
							OFFSET 22.049376 0.000000 0.000000
							CHANNELS 3 Xrotation Yrotation Zrotation
							JOINT LeftHand
							{
								OFFSET 23.009392 0.000000 0.000000
								CHANNELS 3 Xrotation Yrotation Zrotation
								JOINT LeftHandThumb1
								{
									OFFSET 3.507191 -2.063065 3.133727
									CHANNELS 3 Xrotation Yrotation Zrotation
									JOINT LeftHandThumb2
									{
										OFFSET 3.101337 -1.790558 1.790558
										CHANNELS 3 Xrotation Yrotation Zrotation
										JOINT LeftHandThumb3
										{
											OFFSET 3.058640 -1.765907 1.765906
											CHANNELS 3 Xrotation Yrotation Zrotation
											End Site
											{
												OFFSET -0.415260 3.926476 -0.049563
											}
										}
									}
								}
								JOINT LeftHandIndex1
								{
									OFFSET 11.334419 -0.901459 3.706815
									CHANNELS 3 Xrotation Yrotation Zrotation
									JOINT LeftHandIndex2
									{
										OFFSET 3.283112 0.000000 0.000000
										CHANNELS 3 Xrotation Yrotation Zrotation
										JOINT LeftHandIndex3
										{
											OFFSET 3.323853 0.000000 0.000000
											CHANNELS 3 Xrotation Yrotation Zrotation
											End Site
											{
												OFFSET -1.135597 3.097809 0.402452
											}
										}
									}
								}
								JOINT LeftHandMiddle1
								{
									OFFSET 11.335861 0.000000 0.000000
									CHANNELS 3 Xrotation Yrotation Zrotation
									JOINT LeftHandMiddle2
									{
										OFFSET 3.410492 0.000000 0.000000
										CHANNELS 3 Xrotation Yrotation Zrotation
										JOINT LeftHandMiddle3
										{
											OFFSET 3.312172 0.000000 0.000000
											CHANNELS 3 Xrotation Yrotation Zrotation
											End Site
											{
												OFFSET -1.150200 3.080154 0.400270
											}
										}
									}
								}
								JOINT LeftHandRing1
								{
									OFFSET 11.514786 -0.013176 -3.003090
									CHANNELS 3 Xrotation Yrotation Zrotation
									JOINT LeftHandRing2
									{
										OFFSET 3.053307 0.000000 0.000000
										CHANNELS 3 Xrotation Yrotation Zrotation
										JOINT LeftHandRing3
										{
											OFFSET 3.295807 0.000000 0.000000
											CHANNELS 3 Xrotation Yrotation Zrotation
											End Site
											{
												OFFSET -1.281006 3.013344 0.375733
											}
										}
									}
								}
								JOINT LeftHandPinky1
								{
									OFFSET 10.518692 -0.960396 -5.730441
									CHANNELS 3 Xrotation Yrotation Zrotation
									JOINT LeftHandPinky2
									{
										OFFSET 2.861649 0.000000 0.000000
										CHANNELS 3 Xrotation Yrotation Zrotation
										JOINT LeftHandPinky3
										{
											OFFSET 2.863380 0.000000 0.000000
											CHANNELS 3 Xrotation Yrotation Zrotation
											End Site
											{
												OFFSET -0.843597 2.711159 0.369971
											}
										}
									}
								}
							}
							JOINT LSleeve
							{
								OFFSET 6.676277 -0.344902 -1.011730
								CHANNELS 3 Xrotation Yrotation Zrotation
								End Site
								{
									OFFSET 0.000000 14.885353 0.000000
								}
							}
						}
					}
				}
				JOINT RightShoulder
				{
					OFFSET -6.197800 13.665199 -4.064700
					CHANNELS 3 Xrotation Yrotation Zrotation
					JOINT RightArm
					{
						OFFSET -7.778100 -0.187103 -1.709300
						CHANNELS 3 Xrotation Yrotation Zrotation
						JOINT RightForeArm
						{
							OFFSET -22.049376 0.000000 0.000000
							CHANNELS 3 Xrotation Yrotation Zrotation
							JOINT RightHand
							{
								OFFSET -23.009392 0.000000 0.000000
								CHANNELS 3 Xrotation Yrotation Zrotation
								JOINT RightHandThumb1
								{
									OFFSET -3.507191 -2.063065 3.133727
									CHANNELS 3 Xrotation Yrotation Zrotation
									JOINT RightHandThumb2
									{
										OFFSET -3.101337 -1.790558 1.790558
										CHANNELS 3 Xrotation Yrotation Zrotation
										JOINT RightHandThumb3
										{
											OFFSET -3.058640 -1.765907 1.765906
											CHANNELS 3 Xrotation Yrotation Zrotation
											End Site
											{
												OFFSET 0.415260 3.926476 -0.049563
											}
										}
									}
								}
								JOINT RightHandIndex1
								{
									OFFSET -11.334419 -0.901459 3.706815
									CHANNELS 3 Xrotation Yrotation Zrotation
									JOINT RightHandIndex2
									{
										OFFSET -3.283112 0.000000 0.000000
										CHANNELS 3 Xrotation Yrotation Zrotation
										JOINT RightHandIndex3
										{
											OFFSET -3.323853 0.000000 0.000000
											CHANNELS 3 Xrotation Yrotation Zrotation
											End Site
											{
												OFFSET 1.135597 3.097809 0.402452
											}
										}
									}
								}
								JOINT RightHandMiddle1
								{
									OFFSET -11.335861 0.000000 0.000000
									CHANNELS 3 Xrotation Yrotation Zrotation
									JOINT RightHandMiddle2
									{
										OFFSET -3.410492 0.000000 0.000000
										CHANNELS 3 Xrotation Yrotation Zrotation
										JOINT RightHandMiddle3
										{
											OFFSET -3.312172 0.000000 0.000000
											CHANNELS 3 Xrotation Yrotation Zrotation
											End Site
											{
												OFFSET 1.150200 3.080154 0.400270
											}
										}
									}
								}
								JOINT RightHandRing1
								{
									OFFSET -11.514786 -0.013176 -3.003090
									CHANNELS 3 Xrotation Yrotation Zrotation
									JOINT RightHandRing2
									{
										OFFSET -3.053307 0.000000 0.000000
										CHANNELS 3 Xrotation Yrotation Zrotation
										JOINT RightHandRing3
										{
											OFFSET -3.295807 0.000000 0.000000
											CHANNELS 3 Xrotation Yrotation Zrotation
											End Site
											{
												OFFSET 1.281006 3.013344 0.375733
											}
										}
									}
								}
								JOINT RightHandPinky1
								{
									OFFSET -10.518692 -0.960396 -5.730441
									CHANNELS 3 Xrotation Yrotation Zrotation
									JOINT RightHandPinky2
									{
										OFFSET -2.861649 0.000000 0.000000
										CHANNELS 3 Xrotation Yrotation Zrotation
										JOINT RightHandPinky3
										{
											OFFSET -2.863380 0.000000 0.000000
											CHANNELS 3 Xrotation Yrotation Zrotation
											End Site
											{
												OFFSET 0.843597 2.711159 0.369971
											}
										}
									}
								}
							}
							JOINT RSleeve
							{
								OFFSET -6.676277 -0.344902 -1.011730
								CHANNELS 3 Xrotation Yrotation Zrotation
								End Site
								{
									OFFSET 0.000000 14.885353 0.000000
								}
							}
						}
					}
				}
				JOINT Backpack
				{
					OFFSET 0.000000 -2.471497 36.677502
					CHANNELS 3 Xrotation Yrotation Zrotation
					End Site
					{
						OFFSET 0.000000 20.427315 0.000000
					}
				}
				JOINT Hood
				{
					OFFSET 0.000000 18.754097 -10.431000
					CHANNELS 3 Xrotation Yrotation Zrotation
					JOINT Hood1
					{
						OFFSET 0.000000 -5.011002 -7.685901
						CHANNELS 3 Xrotation Yrotation Zrotation
						End Site
						{
							OFFSET 0.000000 9.175140 0.000000
						}
					}
				}
				JOINT LHoodieString
				{
					OFFSET 5.250500 16.397697 3.089900
					CHANNELS 3 Xrotation Yrotation Zrotation
					JOINT LHoodieString1
					{
						OFFSET 0.257700 -6.364304 3.694600
						CHANNELS 3 Xrotation Yrotation Zrotation
						JOINT LHoodieString2
						{
							OFFSET 0.000000 -9.643799 2.679100
							CHANNELS 3 Xrotation Yrotation Zrotation
							End Site
							{
								OFFSET 0.000000 10.009018 0.000000
							}
						}
					}
				}
				JOINT RHoodieString
				{
					OFFSET -5.250500 16.397697 3.089900
					CHANNELS 3 Xrotation Yrotation Zrotation
					JOINT RHoodieString1
					{
						OFFSET -0.257700 -6.364304 3.694600
						CHANNELS 3 Xrotation Yrotation Zrotation
						JOINT RHoodieString2
						{
							OFFSET 0.000000 -9.643799 2.679100
							CHANNELS 3 Xrotation Yrotation Zrotation
							End Site
							{
								OFFSET 0.000000 10.009018 0.000000
							}
						}
					}
				}
			}
			JOINT LBackpack_Strap
			{
				OFFSET 15.223200 -7.719803 -6.610900
				CHANNELS 3 Xrotation Yrotation Zrotation
				End Site
				{
					OFFSET 0.000000 16.040596 0.000000
				}
			}
			JOINT RBackpack_Strap
			{
				OFFSET -15.223000 -7.719803 -6.610900
				CHANNELS 3 Xrotation Yrotation Zrotation
				End Site
				{
					OFFSET 0.000000 16.040596 0.000000
				}
			}
		}
	}
	JOINT BoyFacialAnim_Joint
	{
		OFFSET 1.000000 -82.208099 -1.550900
		CHANNELS 3 Xrotation Yrotation Zrotation
		End Site
		{
			OFFSET 0.000000 30.012791 0.000000
		}
	}
}
MOTION
Frames: 4
Frame Time: 0.033333
23.185253 69.744072 -56.824875 -5.420544 6.922675 -6.733954 0.000000 -0.000000 0.000001 -1.614299 4.530473 11.608012 72.649847 -6.112157 -0.618771 26.738483 -1.287425 -17.303852 -0.000000 0.000000 0.000002 -0.000000 0.000000 0.000002 0.000002 -0.000001 0.000000 -47.583271 5.053309 15.020400 33.792972 -10.334387 2.808001 14.451224 -30.072254 -6.222486 0.000000 -0.000001 -0.000000 0.000000 -0.000001 -0.000000 0.000001 -0.000001 -0.000000 45.813743 3.808524 19.938468 4.716952 -0.426471 -1.888480 4.740642 -0.655819 -1.831041 7.731661 -2.477002 0.544103 -29.571574 12.988260 22.680707 0.000002 0.000000 -0.000002 0.000002 0.000000 -0.000002 0.000002 0.000000 -0.000002 -36.721716 -43.952616 -21.996153 -58.512680 -40.267274 -32.626157 0.000011 -44.162767 0.000005 -133.227566 6.641391 23.901535 4.709219 9.560368 3.111989 19.473182 -1.474921 7.636921 -0.000001 0.000001 -0.000002 -1.775805 -2.774383 -17.382845 3.159899 5.197353 -62.575632 -0.000004 0.000002 -0.000002 -0.316529 3.893456 -38.067247 3.306352 5.270459 -64.180965 -0.000004 -0.000002 -0.000000 -0.171095 5.416971 -57.419338 4.004537 5.553024 -71.573907 -0.000001 -0.000001 0.000001 -6.290036 3.278193 -65.831201 3.449693 5.337170 -65.731821 0.000002 0.000001 -0.000000 -0.000003 -0.000000 0.000000 -41.074982 6.040890 -1.296495 -20.903727 26.616129 61.562476 -0.000002 122.440485 0.000000 -41.339300 -35.472939 -46.363966 8.964114 -9.308865 9.896521 15.236211 -24.758575 -17.553559 -0.000000 0.000002 -0.000002 -1.334378 2.301721 15.148046 0.748654 -2.534273 32.910160 -0.000002 -0.000001 0.000003 2.294167 -6.272610 55.118090 6.196637 -4.395905 109.322225 0.000001 0.000001 0.000002 -3.154392 -2.751318 57.186046 5.379314 -4.600954 98.929983 -0.000001 -0.000001 -0.000001 -4.151416 -2.861653 62.125495 4.250649 -4.639440 84.986548 -0.000001 -0.000000 0.000002 -0.000001 0.000002 -0.000003 -0.000002 0.000000 0.000000 -0.000002 0.000000 0.000000 -0.000002 0.000000 0.000000 -0.000002 0.000000 0.000000 -0.000002 0.000000 0.000000 -0.000001 -0.000000 -0.000000 -0.000002 0.000000 0.000000 -0.000002 0.000000 0.000000 -0.000001 -0.000000 -0.000000 -0.000004 0.000000 -0.000001 -0.000004 0.000000 -0.000001 0.000000 -0.000000 0.000001 
23.124374 68.429688 -50.029640 -6.926072 6.558961 -6.120378 0.000000 -0.000000 -0.000000 -15.067800 1.829824 14.660043 93.642556 -3.201934 -0.617805 22.108183 5.045592 -5.207185 0.000000 0.000000 -0.000002 0.000000 0.000000 -0.000002 -0.000001 0.000001 -0.000000 -50.326517 3.029410 19.983175 51.050494 -10.736597 0.204724 2.847397 -29.999246 -9.275133 -0.000000 0.000001 0.000000 -0.000000 0.000001 0.000000 0.000000 -0.000002 -0.000000 46.724959 4.012360 18.343738 4.618637 -0.296351 -2.018085 4.644330 -0.533240 -1.967970 6.892977 -2.513296 0.416586 -31.683540 11.459780 23.155419 -0.000001 -0.000001 -0.000001 -0.000001 -0.000001 -0.000001 -0.000001 -0.000001 -0.000001 -36.202410 -44.710746 -20.956021 -62.197000 -42.596540 -35.042972 0.000021 -37.993037 0.000009 -132.513989 8.674260 22.704199 4.709221 9.560375 3.111992 19.473182 -1.474920 7.636920 -0.000000 0.000002 -0.000001 -1.775803 -2.774382 -17.382845 3.159899 5.197354 -62.575625 0.000000 -0.000000 -0.000004 -0.316529 3.893453 -38.067250 3.306351 5.270458 -64.180965 -0.000002 -0.000001 0.000002 -0.171095 5.416964 -57.419338 4.004540 5.553022 -71.573907 -0.000000 -0.000001 -0.000002 -6.290037 3.278193 -65.831201 3.449693 5.337173 -65.731821 -0.000003 -0.000001 0.000005 0.000002 -0.000000 -0.000002 -41.068288 6.046590 -1.494602 -22.957521 25.317022 61.491210 -0.000025 121.355154 0.000039 -43.284476 -35.850369 -46.441328 8.964115 -9.308867 9.896524 15.236207 -24.758575 -17.553555 -0.000003 0.000001 -0.000001 -1.334379 2.301723 15.148045 0.748654 -2.534272 32.910163 -0.000001 0.000001 0.000000 2.294167 -6.272611 55.118090 6.196635 -4.395905 109.322232 0.000001 0.000001 -0.000000 -3.154391 -2.751318 57.186049 5.379315 -4.600953 98.929983 -0.000001 -0.000000 0.000002 -4.151415 -2.861655 62.125488 4.250650 -4.639439 84.986555 -0.000000 -0.000001 0.000002 -0.000001 -0.000001 -0.000000 -0.000004 -0.000000 -0.000000 -0.000004 -0.000000 -0.000000 -0.000004 -0.000000 -0.000000 -0.000004 -0.000000 -0.000000 -0.000004 -0.000000 -0.000000 0.000001 -0.000000 -0.000000 -0.000004 -0.000000 -0.000000 -0.000004 -0.000000 -0.000000 0.000001 -0.000000 -0.000000 -0.000003 0.000000 0.000000 -0.000003 0.000000 0.000000 0.000000 -0.000000 -0.000000 
23.209764 67.704414 -42.915932 -8.312516 5.287953 -5.860216 -0.000001 -0.000000 0.000000 -30.602239 -1.416638 14.563497 107.028771 -4.829473 -0.678325 17.456435 11.921024 7.685437 -0.000000 0.000001 -0.000000 -0.000000 0.000001 -0.000000 0.000001 -0.000000 0.000000 -47.596747 0.510723 22.108279 61.957104 -10.674978 -1.475418 -7.783865 -29.913339 -6.323743 0.000000 -0.000002 0.000000 0.000000 -0.000002 0.000000 0.000000 0.000000 0.000000 47.827652 4.868965 16.292706 4.551054 -0.101216 -2.239634 4.579344 -0.354424 -2.201217 6.722528 -2.560217 -0.135266 -32.720069 10.393565 23.152417 0.000002 -0.000001 0.000000 0.000002 -0.000001 0.000000 0.000002 -0.000001 0.000000 -35.851584 -45.427585 -20.266442 -66.726836 -45.895050 -38.138106 -0.000015 -29.211985 0.000001 -130.596673 11.917364 19.621255 4.709220 9.560369 3.111991 19.473184 -1.474921 7.636922 0.000003 0.000001 -0.000001 -1.775803 -2.774375 -17.382845 3.159899 5.197353 -62.575625 -0.000001 -0.000001 -0.000000 -0.316529 3.893461 -38.067250 3.306351 5.270460 -64.180965 -0.000001 -0.000000 -0.000002 -0.171094 5.416975 -57.419338 4.004534 5.553024 -71.573907 0.000001 0.000001 -0.000004 -6.290036 3.278197 -65.831207 3.449696 5.337172 -65.731821 -0.000000 -0.000000 0.000001 0.000000 0.000000 0.000001 -41.055724 5.863028 -2.096220 -23.600412 24.453831 61.294924 0.000052 119.218152 -0.000075 -43.527088 -33.165978 -45.130055 8.964116 -9.308867 9.896520 15.236209 -24.758579 -17.553557 0.000000 0.000001 0.000001 -1.334377 2.301722 15.148048 0.748655 -2.534271 32.910160 0.000001 0.000000 0.000007 2.294168 -6.272610 55.118097 6.196635 -4.395905 109.322232 0.000001 0.000001 -0.000002 -3.154393 -2.751318 57.186046 5.379313 -4.600953 98.929976 0.000001 0.000000 0.000002 -4.151413 -2.861655 62.125488 4.250648 -4.639440 84.986541 -0.000002 -0.000001 0.000000 0.000000 -0.000003 -0.000003 -0.000001 0.000000 -0.000000 -0.000001 0.000000 -0.000000 -0.000001 0.000000 -0.000000 -0.000001 0.000000 -0.000000 -0.000001 0.000000 -0.000000 0.000001 -0.000000 -0.000000 -0.000001 0.000000 -0.000000 -0.000001 0.000000 -0.000000 0.000001 -0.000000 -0.000000 -0.000000 0.000001 0.000001 -0.000000 0.000001 0.000001 -0.000001 -0.000000 0.000000 
23.354700 68.003822 -34.495365 -8.852353 2.628869 -4.005777 -0.000001 0.000000 0.000000 -44.020293 -1.987036 12.853283 109.426058 -7.585093 -1.406053 12.354189 12.177496 14.546932 0.000003 -0.000001 -0.000000 0.000003 -0.000001 -0.000000 0.000002 0.000000 -0.000001 -39.660948 -0.948248 21.310996 67.198290 -10.404883 -2.943090 -21.201945 -29.862557 -5.547974 -0.000000 0.000001 0.000000 -0.000000 0.000001 0.000000 0.000001 -0.000000 -0.000000 47.497532 4.556120 12.332937 4.621589 0.069571 -2.485756 4.650342 -0.196656 -2.457142 7.370829 -2.592028 -0.445923 -32.621120 9.519107 23.489552 0.000000 0.000000 0.000002 0.000000 0.000000 0.000002 0.000000 0.000000 0.000002 -35.815217 -46.030779 -20.190698 -66.404089 -45.812589 -37.983105 0.000011 -26.799741 0.000005 -128.701555 13.469084 17.784085 4.709219 9.560374 3.111991 19.473184 -1.474919 7.636922 0.000001 0.000002 -0.000000 -1.775803 -2.774378 -17.382843 3.159901 5.197356 -62.575625 -0.000000 0.000001 -0.000003 -0.316530 3.893456 -38.067247 3.306351 5.270454 -64.180965 0.000004 0.000000 -0.000001 -0.171096 5.416973 -57.419331 4.004537 5.553024 -71.573907 0.000002 -0.000001 -0.000001 -6.290035 3.278194 -65.831201 3.449689 5.337173 -65.731821 -0.000003 -0.000002 -0.000002 -0.000000 0.000001 0.000001 -41.045930 5.568662 -2.756055 -21.297448 25.162169 61.706299 -0.000063 117.254431 0.000071 -41.816539 -28.285958 -43.871012 8.964114 -9.308866 9.896520 15.236209 -24.758577 -17.553557 -0.000000 0.000001 0.000000 -1.334378 2.301722 15.148048 0.748654 -2.534274 32.910160 -0.000002 -0.000000 0.000004 2.294169 -6.272608 55.118090 6.196635 -4.395907 109.322225 0.000000 0.000001 -0.000004 -3.154394 -2.751318 57.186046 5.379315 -4.600953 98.929976 0.000000 -0.000000 -0.000003 -4.151416 -2.861653 62.125488 4.250648 -4.639441 84.986555 -0.000000 -0.000002 -0.000000 0.000000 -0.000001 -0.000002 -0.000000 -0.000000 -0.000000 -0.000000 -0.000000 -0.000000 -0.000000 -0.000000 -0.000000 -0.000000 -0.000000 -0.000000 -0.000000 -0.000000 -0.000000 -0.000002 -0.000000 -0.000000 -0.000000 -0.000000 -0.000000 -0.000000 -0.000000 -0.000000 -0.000002 -0.000000 -0.000000 -0.000001 0.000000 0.000000 -0.000001 0.000000 0.000000 -0.000001 0.000000 0.000000 
